<?xml version="1.0" standalone="no"?>
<!DOCTYPE svg PUBLIC "-//W3C//DTD SVG 20010904//EN"
 "http://www.w3.org/TR/2001/REC-SVG-20010904/DTD/svg10.dtd">
<svg version="1.0" xmlns="http://www.w3.org/2000/svg"
 width="238.000000pt" height="219.000000pt" viewBox="0 0 238.000000 219.000000"
 preserveAspectRatio="xMidYMid meet">
<metadata>
Created by potrace 1.15, written by Peter Selinger 2001-2017
</metadata>
<g transform="translate(0.000000,219.000000) scale(0.100000,-0.100000)"
fill="#000000" stroke="none">
<path d="M1026 2160 c-42 -27 -47 -28 -41 -10 13 40 -29 20 -90 -43 -77 -81
-165 -212 -235 -352 -60 -119 -80 -186 -80 -271 l0 -54 -62 46 c-71 52 -223
128 -237 119 -6 -3 -8 -12 -5 -19 4 -11 -2 -12 -35 -3 -22 6 -43 8 -46 5 -4
-3 7 -33 24 -67 42 -82 41 -113 -4 -134 -46 -22 -70 -61 -70 -116 0 -42 -1
-44 -40 -58 -43 -15 -55 -27 -55 -59 0 -47 91 -96 208 -113 40 -5 85 -17 100
-27 l26 -17 -24 -10 c-234 -90 -344 -215 -358 -404 -20 -287 303 -573 646
-573 142 0 240 25 552 140 306 113 357 125 535 125 107 0 174 -5 235 -18 104
-22 246 -70 322 -108 66 -33 68 -34 68 -14 0 38 -262 130 -486 171 -18 3 -23
15 -33 76 -15 100 -27 139 -56 182 -14 20 -25 38 -25 40 0 2 20 11 43 20 121
46 123 153 4 215 -26 13 -67 26 -91 28 -45 6 -45 6 -51 52 -7 55 -24 149 -31
174 -8 26 -39 20 -73 -14 -28 -28 -40 -57 -56 -131 l-5 -28 -47 36 c-53 41
-115 74 -138 74 -11 0 -15 -12 -15 -52 0 -69 31 -130 97 -194 68 -66 70 -90 8
-123 -61 -32 -140 -119 -173 -188 -23 -49 -27 -72 -27 -144 l0 -85 -32 18
c-25 15 -36 17 -52 9 -31 -17 -36 -49 -12 -82 12 -15 21 -30 21 -32 0 -7 -164
-63 -250 -87 -110 -31 -276 -37 -375 -15 -186 41 -357 171 -438 335 -30 60
-32 71 -32 170 0 96 2 110 29 163 41 81 114 150 209 197 44 22 87 40 96 40 10
0 26 6 36 14 19 14 19 14 0 36 -31 35 -69 50 -150 60 -149 19 -228 91 -132
122 42 13 42 13 47 69 6 62 23 90 71 110 38 15 70 76 78 147 l6 53 83 -48
c111 -64 184 -125 239 -198 85 -111 118 -216 116 -365 -2 -117 -21 -207 -78
-375 -46 -134 -54 -182 -33 -203 21 -21 25 -13 21 36 -4 37 3 66 30 137 64
168 82 254 82 410 0 121 -3 149 -23 207 -22 62 -69 143 -124 211 -31 38 -37
150 -13 233 33 115 179 362 276 468 l46 50 1 -58 c1 -142 125 -267 346 -350
51 -20 81 -36 78 -44 -2 -6 6 -15 17 -20 20 -7 20 -8 -5 -40 -35 -45 -70 -60
-161 -73 -101 -14 -157 -39 -183 -81 -41 -68 -38 -109 25 -273 21 -54 27 -88
27 -150 1 -104 -28 -189 -121 -360 -90 -165 -115 -242 -109 -338 5 -77 36
-163 69 -193 23 -21 39 -10 21 14 -44 61 -57 107 -57 207 l0 100 51 100 c27
55 71 141 97 190 91 176 101 312 33 482 -41 104 -45 153 -16 200 26 43 60 59
158 73 102 15 158 43 194 95 52 75 47 82 -73 124 -126 45 -199 85 -269 148
l-52 47 5 57 c3 40 16 76 41 121 54 98 46 111 -38 58z m605 -1218 c16 -118 12
-112 66 -112 86 -1 173 -59 173 -115 0 -39 -86 -95 -147 -95 -20 0 -15 -16 16
-49 37 -39 58 -93 75 -192 l13 -76 -121 -6 c-134 -7 -219 -25 -401 -89 -129
-44 -168 -46 -180 -7 -12 38 11 45 55 15 53 -35 74 -29 59 14 -6 17 -10 63 -7
103 6 125 75 231 193 298 52 29 55 33 55 69 0 32 -6 43 -43 73 -24 19 -55 52
-69 73 -29 41 -52 124 -39 137 9 9 117 -60 155 -101 16 -17 33 -29 38 -26 4 3
8 24 8 47 0 60 16 110 47 143 l26 28 8 -22 c5 -12 14 -62 20 -110z"/>
</g>
</svg>
